# xmcd CD database file
#
# Track frame offsets:
#	150
#	13777
#	27960
#	38877
#	49277
#	59275
#	67277
#	78422
#	90985
#	109097
#	118940
#	130400
#	141762
#	153297
#	161552
#	174072
#	188072
#	200447
#	208645
#	220412
#
# Disc length: 3159 seconds
#
# Revision: 0
# Processed by: cddbd v1.5.1PL0 Copyright (c) Steve Scherf et al.
# Submitted via: CDex 1.51
#
DISCID=1d0c5514
DTITLE=Various Artist - A Winter Romance
DYEAR=1990
DGENRE=Jazz
TTITLE0=A Winter Romance (Dean Martin)
TTITLE1=The Little Star (June Christy)
TTITLE2=Winter Wonderland (Bing Crosby)
TTITLE3=Santa Claus is Coming to Town (Peggy Lee)
TTITLE4=Good Time Christmas (Lou Rawls)
TTITLE5=Angels We Have Heard on High (Ella Fitzgerald)
TTITLE6=Adeste Fideles (Nat King Cole)
TTITLE7=My Favorite Things (Sarah Vaughan)
TTITLE8=The Littlest Angel (Bing Crosby)
TTITLE9=Silent Night (Nat King Cole)
TTITLE10=The Christmas Song (Peggy Lee)
TTITLE11=White Christmas (Dean Martin)
TTITLE12=My Two Front Teeth (Nat King Cole)
TTITLE13=The First Noel (Ella Fitzgerald)
TTITLE14=Do You Hear What I Hear (Bing Crosby)
TTITLE15=Ring a Merry Bell (June Christy)
TTITLE16=I've Got My Love to Keep Me Warm (Dean Martin)
TTITLE17=Hark! The Herald Angels Sing (Ella Fitzgerald)
TTITLE18=Merry Christmas, Baby (Lou Rawls)
TTITLE19=What are You Doing New Year's Eve (Lena Horne)
EXTD=YEAR: 1990
EXTT0=
EXTT1=
EXTT2=
EXTT3=
EXTT4=
EXTT5=
EXTT6=
EXTT7=
EXTT8=
EXTT9=
EXTT10=
EXTT11=
EXTT12=
EXTT13=
EXTT14=
EXTT15=
EXTT16=
EXTT17=
EXTT18=
EXTT19=
PLAYORDER=
